<svg width="342" height="60" viewBox="0 0 342 60" fill="none" xmlns="http://www.w3.org/2000/svg">
<g clip-path="url(#clip0_3_12)">
<path d="M46.3334 8.25V17.9167M51.1667 13.0833H41.5M7.66669 42.0833V46.9167M10.0834 44.5H5.25002M22.0144 38.4583C21.7987 37.622 21.3628 36.8587 20.752 36.248C20.1413 35.6373 19.378 35.2013 18.5417 34.9856L3.71543 31.1624C3.46248 31.0906 3.23986 30.9383 3.08133 30.7285C2.92281 30.5187 2.83704 30.2629 2.83704 30C2.83704 29.7371 2.92281 29.4813 3.08133 29.2715C3.23986 29.0617 3.46248 28.9094 3.71543 28.8376L18.5417 25.012C19.3777 24.7964 20.1408 24.3609 20.7515 23.7506C21.3622 23.1403 21.7983 22.3776 22.0144 21.5417L25.8376 6.71542C25.9087 6.46147 26.0609 6.23774 26.271 6.07837C26.4811 5.919 26.7375 5.83273 27.0012 5.83273C27.2649 5.83273 27.5214 5.919 27.7315 6.07837C27.9416 6.23774 28.0938 6.46147 28.1649 6.71542L31.9856 21.5417C32.2014 22.378 32.6373 23.1413 33.248 23.752C33.8588 24.3627 34.622 24.7987 35.4584 25.0144L50.2846 28.8352C50.5396 28.9055 50.7644 29.0575 50.9246 29.2679C51.0849 29.4783 51.1716 29.7355 51.1716 30C51.1716 30.2645 51.0849 30.5217 50.9246 30.7321C50.7644 30.9425 50.5396 31.0945 50.2846 31.1648L35.4584 34.9856C34.622 35.2013 33.8588 35.6373 33.248 36.248C32.6373 36.8587 32.2014 37.622 31.9856 38.4583L28.1624 53.2846C28.0914 53.5385 27.9392 53.7623 27.7291 53.9216C27.519 54.081 27.2625 54.1673 26.9988 54.1673C26.7351 54.1673 26.4786 54.081 26.2685 53.9216C26.0584 53.7623 25.9063 53.5385 25.8352 53.2846L22.0144 38.4583Z" stroke="#F4D182" stroke-width="4" stroke-linecap="round" stroke-linejoin="round"/>
</g>
<path d="M88.144 47.528C84.624 47.528 81.616 46.776 79.12 45.272C76.656 43.736 74.784 41.592 73.504 38.84C72.224 36.088 71.584 32.856 71.584 29.144C71.584 25.56 72.336 22.392 73.84 19.64C75.344 16.888 77.408 14.76 80.032 13.256C82.656 11.72 85.6 10.952 88.864 10.952C91.328 10.952 94.288 11.336 97.744 12.104L99.328 12.392L98.848 21.032H95.632L94.432 14.936C93.984 14.552 93.2 14.232 92.08 13.976C90.992 13.688 89.648 13.544 88.048 13.544C86 13.544 84.176 14.136 82.576 15.32C80.976 16.472 79.712 18.184 78.784 20.456C77.888 22.728 77.44 25.448 77.44 28.616C77.44 31.624 77.84 34.36 78.64 36.824C79.44 39.288 80.656 41.256 82.288 42.728C83.92 44.168 85.936 44.888 88.336 44.888C90.032 44.888 91.328 44.744 92.224 44.456C93.152 44.168 93.936 43.752 94.576 43.208L96.592 38.504L99.616 38.888L98.464 45.704C97.792 45.736 96.8 45.96 95.488 46.376C94.336 46.728 93.216 47 92.128 47.192C91.072 47.416 89.744 47.528 88.144 47.528ZM103.519 33.608C103.519 30.728 104.111 28.232 105.295 26.12C106.479 24.008 108.031 22.408 109.951 21.32C111.903 20.2 113.983 19.64 116.191 19.64C120.223 19.64 123.247 20.92 125.263 23.48C127.311 26.04 128.335 29.4 128.335 33.56C128.335 36.472 127.743 38.984 126.559 41.096C125.375 43.208 123.807 44.808 121.855 45.896C119.935 46.984 117.871 47.528 115.663 47.528C111.631 47.528 108.591 46.248 106.543 43.688C104.527 41.128 103.519 37.768 103.519 33.608ZM115.951 44.792C118.159 44.792 119.855 43.88 121.039 42.056C122.223 40.232 122.815 37.528 122.815 33.944C122.815 30.392 122.271 27.576 121.183 25.496C120.095 23.416 118.351 22.376 115.951 22.376C113.743 22.376 112.031 23.288 110.815 25.112C109.631 26.936 109.039 29.64 109.039 33.224C109.039 36.776 109.599 39.592 110.719 41.672C111.839 43.752 113.583 44.792 115.951 44.792ZM132.675 44.648L135.603 44.216V24.056L132.146 23.192V20.6L139.011 19.736L139.875 20.36L140.163 22.28L140.115 23.816C141.235 22.792 142.755 21.864 144.674 21.032C146.627 20.168 148.371 19.736 149.907 19.736C151.635 19.736 153.027 20.024 154.083 20.6C155.139 21.176 155.939 22.072 156.483 23.288C157.507 22.424 158.931 21.624 160.755 20.888C162.611 20.12 164.339 19.736 165.939 19.736C167.923 19.736 169.475 20.12 170.595 20.888C171.715 21.624 172.499 22.792 172.947 24.392C173.427 25.96 173.667 28.072 173.667 30.728V44.216L177.123 44.648V47H165.699V44.648L168.675 44.216V30.872C168.675 29.016 168.531 27.544 168.243 26.456C167.987 25.336 167.475 24.504 166.707 23.96C165.971 23.416 164.899 23.144 163.491 23.144C162.435 23.144 161.315 23.384 160.131 23.864C158.947 24.312 157.939 24.856 157.107 25.496C157.395 26.744 157.539 28.52 157.539 30.824V44.216L160.947 44.648V47H149.331V44.648L152.499 44.216V30.776C152.499 28.856 152.371 27.368 152.115 26.312C151.891 25.256 151.443 24.472 150.771 23.96C150.099 23.416 149.075 23.144 147.699 23.144C146.547 23.144 145.315 23.432 144.003 24.008C142.723 24.584 141.603 25.256 140.643 26.024V44.216L143.859 44.648V47H132.675V44.648ZM192.296 47.528C188.424 47.528 185.464 46.264 183.416 43.736C181.4 41.208 180.392 37.832 180.392 33.608C180.392 30.824 180.92 28.376 181.976 26.264C183.032 24.152 184.504 22.52 186.392 21.368C188.312 20.216 190.488 19.64 192.92 19.64C195.896 19.64 198.2 20.472 199.832 22.136C201.496 23.768 202.376 26.12 202.472 29.192C202.472 31.144 202.36 32.632 202.136 33.656H185.624C185.688 36.824 186.424 39.384 187.832 41.336C189.24 43.256 191.24 44.216 193.832 44.216C195.112 44.216 196.44 43.992 197.816 43.544C199.224 43.064 200.312 42.504 201.08 41.864L201.992 43.976C201.064 44.936 199.688 45.768 197.864 46.472C196.04 47.176 194.184 47.528 192.296 47.528ZM197.192 31.112C197.288 30.44 197.336 29.752 197.336 29.048C197.304 26.968 196.856 25.336 195.992 24.152C195.16 22.936 193.832 22.328 192.008 22.328C190.152 22.328 188.664 23 187.544 24.344C186.456 25.688 185.832 27.944 185.672 31.112H197.192ZM214.806 47.48C212.982 47.48 211.622 47.064 210.726 46.232C209.83 45.4 209.382 43.976 209.382 41.96V23.528H205.926V21.368C206.086 21.336 206.534 21.224 207.27 21.032C208.006 20.84 208.502 20.664 208.758 20.504C209.27 20.216 209.67 19.64 209.958 18.776C210.214 18.168 210.518 17.192 210.87 15.848C211.222 14.504 211.43 13.704 211.493 13.448H214.326L214.422 20.36H222.438V23.528H214.422V38.264C214.422 40.088 214.47 41.368 214.566 42.104C214.694 42.84 214.934 43.32 215.286 43.544C215.67 43.768 216.31 43.88 217.206 43.88C218.07 43.88 219.014 43.768 220.038 43.544C221.094 43.32 221.91 43.08 222.486 42.824L223.206 44.984C222.438 45.56 221.19 46.12 219.462 46.664C217.766 47.208 216.214 47.48 214.806 47.48ZM253.519 47.528C249.999 47.528 246.991 46.776 244.495 45.272C242.031 43.736 240.159 41.592 238.879 38.84C237.599 36.088 236.959 32.856 236.959 29.144C236.959 25.56 237.711 22.392 239.215 19.64C240.719 16.888 242.783 14.76 245.407 13.256C248.031 11.72 250.975 10.952 254.239 10.952C256.703 10.952 259.663 11.336 263.119 12.104L264.703 12.392L264.223 21.032H261.007L259.807 14.936C259.359 14.552 258.575 14.232 257.455 13.976C256.367 13.688 255.023 13.544 253.423 13.544C251.375 13.544 249.551 14.136 247.951 15.32C246.351 16.472 245.087 18.184 244.159 20.456C243.263 22.728 242.815 25.448 242.815 28.616C242.815 31.624 243.215 34.36 244.015 36.824C244.815 39.288 246.031 41.256 247.663 42.728C249.295 44.168 251.311 44.888 253.711 44.888C255.407 44.888 256.703 44.744 257.599 44.456C258.527 44.168 259.311 43.752 259.951 43.208L261.967 38.504L264.991 38.888L263.839 45.704C263.167 45.736 262.175 45.96 260.863 46.376C259.711 46.728 258.591 47 257.503 47.192C256.447 47.416 255.119 47.528 253.519 47.528ZM272.926 14.312L269.182 13.736V11.336H275.47C276.462 11.336 277.886 11.272 279.742 11.144C281.598 11.016 282.99 10.952 283.918 10.952C289.87 10.952 294.286 12.456 297.166 15.464C300.078 18.44 301.534 22.632 301.534 28.04C301.534 31.816 300.782 35.176 299.278 38.12C297.806 41.032 295.726 43.304 293.038 44.936C290.35 46.568 287.262 47.384 283.774 47.384C283.006 47.384 281.694 47.32 279.838 47.192C277.918 47.064 276.478 47 275.518 47H268.942V44.648L272.926 44.168V14.312ZM278.014 44.312C279.134 44.568 280.574 44.696 282.334 44.696H283.774C286.174 44.664 288.286 44.056 290.11 42.872C291.966 41.688 293.406 39.928 294.43 37.592C295.454 35.224 295.966 32.36 295.966 29C295.966 23.944 294.862 20.104 292.654 17.48C290.478 14.856 287.182 13.544 282.766 13.544C281.838 13.544 280.734 13.608 279.454 13.736C278.91 13.832 278.43 13.88 278.014 13.88V44.312ZM309.349 14.312L305.509 13.736V11.336H314.437L330.421 34.76L333.109 39.848V14.312L328.933 13.736V11.336H340.261V13.736L336.421 14.312V47H332.629L316.309 23.048L312.613 16.712V44.168L317.173 44.648V47H305.509V44.648L309.349 44.12V14.312Z" fill="white"/>
<defs>
<clipPath id="clip0_3_12">
<rect width="54" height="54" fill="white" transform="translate(0 3)"/>
</clipPath>
</defs>
</svg>
